<svg width="150" height="48" viewBox="0 0 150 48" fill="none" xmlns="http://www.w3.org/2000/svg">
<g clip-path="url(#clip0_0_9137)">
<rect width="150" height="48" rx="24" fill="#7C5DFA"/>
<path d="M58.7 21.155L58.865 21.185V29H56.6225V19.1H59.6825L63.695 26.9L63.53 26.93V19.1H65.7725V29H62.6975L58.7 21.155ZM69.0348 26.405C69.0498 26.625 69.1198 26.82 69.2448 26.99C69.3698 27.16 69.5423 27.295 69.7623 27.395C69.9873 27.49 70.2523 27.5375 70.5573 27.5375C70.8473 27.5375 71.1073 27.5075 71.3373 27.4475C71.5723 27.3875 71.7748 27.3125 71.9448 27.2225C72.1198 27.1325 72.2548 27.04 72.3498 26.945L73.2348 28.355C73.1098 28.49 72.9323 28.6225 72.7023 28.7525C72.4773 28.8775 72.1798 28.98 71.8098 29.06C71.4398 29.14 70.9723 29.18 70.4073 29.18C69.7273 29.18 69.1223 29.0525 68.5923 28.7975C68.0623 28.5425 67.6448 28.1675 67.3398 27.6725C67.0348 27.1775 66.8823 26.5725 66.8823 25.8575C66.8823 25.2575 67.0123 24.7175 67.2723 24.2375C67.5373 23.7525 67.9198 23.37 68.4198 23.09C68.9198 22.805 69.5223 22.6625 70.2273 22.6625C70.8973 22.6625 71.4773 22.785 71.9673 23.03C72.4623 23.275 72.8423 23.64 73.1073 24.125C73.3773 24.605 73.5123 25.205 73.5123 25.925C73.5123 25.965 73.5098 26.045 73.5048 26.165C73.5048 26.285 73.4998 26.365 73.4898 26.405H69.0348ZM71.3673 25.2125C71.3623 25.0525 71.3198 24.895 71.2398 24.74C71.1598 24.58 71.0398 24.45 70.8798 24.35C70.7198 24.245 70.5148 24.1925 70.2648 24.1925C70.0148 24.1925 69.8023 24.2425 69.6273 24.3425C69.4573 24.4375 69.3273 24.5625 69.2373 24.7175C69.1473 24.8725 69.0973 25.0375 69.0873 25.2125H71.3673ZM79.1805 25.43L77.748 29H75.6555L73.6155 22.8425H76.038L77.0205 26.5625L78.438 22.9625H79.938L81.333 26.5625L82.323 22.8425H84.7455L82.713 29H80.628L79.1805 25.43ZM88.9423 19.1H91.1848V29H88.9423V19.1ZM96.9124 22.6625C97.3424 22.6625 97.7624 22.75 98.1724 22.925C98.5824 23.1 98.9199 23.3775 99.1849 23.7575C99.4499 24.1325 99.5824 24.6275 99.5824 25.2425V29H97.2949V25.6175C97.2949 25.1775 97.1899 24.8475 96.9799 24.6275C96.7699 24.4025 96.4949 24.29 96.1549 24.29C95.9299 24.29 95.7174 24.35 95.5174 24.47C95.3224 24.585 95.1624 24.75 95.0374 24.965C94.9174 25.175 94.8574 25.4175 94.8574 25.6925V29H92.5774V22.8425H94.8574V23.75C94.9174 23.585 95.0424 23.42 95.2324 23.255C95.4274 23.085 95.6699 22.945 95.9599 22.835C96.2549 22.72 96.5724 22.6625 96.9124 22.6625ZM100.102 22.8425H102.54L104.025 26.93L105.517 22.8425H107.94L105.36 29H102.69L100.102 22.8425ZM111.745 29.18C111.07 29.18 110.47 29.0425 109.945 28.7675C109.425 28.4875 109.015 28.105 108.715 27.62C108.42 27.13 108.273 26.57 108.273 25.94C108.273 25.31 108.42 24.75 108.715 24.26C109.015 23.765 109.425 23.375 109.945 23.09C110.47 22.805 111.07 22.6625 111.745 22.6625C112.42 22.6625 113.015 22.805 113.53 23.09C114.045 23.375 114.448 23.765 114.738 24.26C115.028 24.75 115.173 25.31 115.173 25.94C115.173 26.57 115.028 27.13 114.738 27.62C114.448 28.105 114.045 28.4875 113.53 28.7675C113.015 29.0425 112.42 29.18 111.745 29.18ZM111.745 27.305C112.005 27.305 112.23 27.2475 112.42 27.1325C112.61 27.0175 112.758 26.855 112.863 26.645C112.968 26.435 113.02 26.1975 113.02 25.9325C113.02 25.6625 112.968 25.4225 112.863 25.2125C112.758 25.0025 112.61 24.8375 112.42 24.7175C112.23 24.5975 112.005 24.5375 111.745 24.5375C111.485 24.5375 111.258 24.5975 111.063 24.7175C110.873 24.8375 110.723 25.0025 110.613 25.2125C110.508 25.4225 110.455 25.6625 110.455 25.9325C110.455 26.1975 110.508 26.435 110.613 26.645C110.723 26.855 110.873 27.0175 111.063 27.1325C111.258 27.2475 111.485 27.305 111.745 27.305ZM116.184 29V22.8425H118.464V29H116.184ZM117.354 21.575C116.994 21.575 116.689 21.45 116.439 21.2C116.189 20.945 116.064 20.6425 116.064 20.2925C116.064 19.9425 116.189 19.64 116.439 19.385C116.694 19.125 116.999 18.995 117.354 18.995C117.589 18.995 117.804 19.055 117.999 19.175C118.194 19.29 118.352 19.445 118.472 19.64C118.592 19.835 118.652 20.0525 118.652 20.2925C118.652 20.6425 118.524 20.945 118.269 21.2C118.014 21.45 117.709 21.575 117.354 21.575ZM123.123 27.3875C123.408 27.3875 123.643 27.34 123.828 27.245C124.013 27.145 124.138 27.065 124.203 27.005L125.245 28.55C125.165 28.615 125.028 28.7 124.833 28.805C124.638 28.905 124.393 28.9925 124.098 29.0675C123.808 29.1425 123.475 29.18 123.1 29.18C122.395 29.18 121.775 29.0475 121.24 28.7825C120.705 28.5125 120.288 28.1325 119.988 27.6425C119.693 27.1525 119.545 26.5775 119.545 25.9175C119.545 25.2525 119.693 24.6775 119.988 24.1925C120.288 23.7075 120.705 23.3325 121.24 23.0675C121.775 22.7975 122.395 22.6625 123.1 22.6625C123.47 22.6625 123.8 22.7025 124.09 22.7825C124.385 22.8575 124.633 22.945 124.833 23.045C125.033 23.14 125.173 23.2225 125.253 23.2925L124.188 24.8525C124.153 24.8175 124.088 24.7675 123.993 24.7025C123.903 24.6375 123.785 24.58 123.64 24.53C123.495 24.48 123.323 24.455 123.123 24.455C122.878 24.455 122.648 24.5175 122.433 24.6425C122.223 24.7675 122.053 24.94 121.923 25.16C121.793 25.38 121.728 25.6325 121.728 25.9175C121.728 26.2025 121.793 26.4575 121.923 26.6825C122.053 26.9025 122.223 27.075 122.433 27.2C122.648 27.325 122.878 27.3875 123.123 27.3875ZM127.737 26.405C127.752 26.625 127.822 26.82 127.947 26.99C128.072 27.16 128.244 27.295 128.464 27.395C128.689 27.49 128.954 27.5375 129.259 27.5375C129.549 27.5375 129.809 27.5075 130.039 27.4475C130.274 27.3875 130.477 27.3125 130.647 27.2225C130.822 27.1325 130.957 27.04 131.052 26.945L131.937 28.355C131.812 28.49 131.634 28.6225 131.404 28.7525C131.179 28.8775 130.882 28.98 130.512 29.06C130.142 29.14 129.674 29.18 129.109 29.18C128.429 29.18 127.824 29.0525 127.294 28.7975C126.764 28.5425 126.347 28.1675 126.042 27.6725C125.737 27.1775 125.584 26.5725 125.584 25.8575C125.584 25.2575 125.714 24.7175 125.974 24.2375C126.239 23.7525 126.622 23.37 127.122 23.09C127.622 22.805 128.224 22.6625 128.929 22.6625C129.599 22.6625 130.179 22.785 130.669 23.03C131.164 23.275 131.544 23.64 131.809 24.125C132.079 24.605 132.214 25.205 132.214 25.925C132.214 25.965 132.212 26.045 132.207 26.165C132.207 26.285 132.202 26.365 132.192 26.405H127.737ZM130.069 25.2125C130.064 25.0525 130.022 24.895 129.942 24.74C129.862 24.58 129.742 24.45 129.582 24.35C129.422 24.245 129.217 24.1925 128.967 24.1925C128.717 24.1925 128.504 24.2425 128.329 24.3425C128.159 24.4375 128.029 24.5625 127.939 24.7175C127.849 24.8725 127.799 25.0375 127.789 25.2125H130.069Z" fill="white"/>
<circle cx="24" cy="24" r="16" fill="white"/>
<path d="M25.3131 29.0229V25.3131H29.0229V22.7328H25.3131V19.0229H22.7328V22.7328H19.0229V25.3131H22.7328V29.0229H25.3131Z" fill="#7C5DFA"/>
</g>
<defs>
<clipPath id="clip0_0_9137">
<rect width="150" height="48" fill="white"/>
</clipPath>
</defs>
</svg>
